<mxfile host="app.diagrams.net" modified="2024-05-22T08:36:27.288Z" agent="Mozilla/5.0 (X11; Linux x86_64) AppleWebKit/537.36 (KHTML, like Gecko) Chrome/125.0.0.0 Safari/537.36" etag="LEwDGUqcmEdIjS9WkIHO" version="24.3.1" type="github">
  <diagram name="Page-1" id="yVcikV2g2sbOkIzYe1wD">
    <mxGraphModel dx="2868" dy="1588" grid="1" gridSize="10" guides="1" tooltips="1" connect="1" arrows="1" fold="1" page="1" pageScale="1" pageWidth="827" pageHeight="1169" math="0" shadow="0">
      <root>
        <mxCell id="0" />
        <mxCell id="1" parent="0" />
        <mxCell id="TinNUj6vpqagRueMMJya-41" value="" style="rounded=1;whiteSpace=wrap;html=1;" vertex="1" parent="1">
          <mxGeometry x="30" y="554" width="1360" height="520" as="geometry" />
        </mxCell>
        <mxCell id="TinNUj6vpqagRueMMJya-10" value="" style="rounded=1;whiteSpace=wrap;html=1;" vertex="1" parent="1">
          <mxGeometry x="40" y="10" width="1360" height="520" as="geometry" />
        </mxCell>
        <mxCell id="TinNUj6vpqagRueMMJya-12" value="&lt;font style=&quot;font-size: 21px;&quot;&gt;Tools&lt;/font&gt;" style="text;html=1;align=center;verticalAlign=middle;whiteSpace=wrap;rounded=0;" vertex="1" parent="1">
          <mxGeometry x="990" y="30" width="60" height="30" as="geometry" />
        </mxCell>
        <mxCell id="TinNUj6vpqagRueMMJya-34" value="" style="group" vertex="1" connectable="0" parent="1">
          <mxGeometry x="70" y="25" width="1040" height="400" as="geometry" />
        </mxCell>
        <mxCell id="TinNUj6vpqagRueMMJya-11" value="" style="rounded=1;whiteSpace=wrap;html=1;" vertex="1" parent="TinNUj6vpqagRueMMJya-34">
          <mxGeometry width="630" height="400" as="geometry" />
        </mxCell>
        <mxCell id="TinNUj6vpqagRueMMJya-32" value="" style="group" vertex="1" connectable="0" parent="TinNUj6vpqagRueMMJya-34">
          <mxGeometry x="10" y="20" width="90" height="78" as="geometry" />
        </mxCell>
        <mxCell id="TinNUj6vpqagRueMMJya-9" value="" style="aspect=fixed;sketch=0;html=1;dashed=0;whitespace=wrap;fillColor=#2875E2;strokeColor=#ffffff;points=[[0.005,0.63,0],[0.1,0.2,0],[0.9,0.2,0],[0.5,0,0],[0.995,0.63,0],[0.72,0.99,0],[0.5,1,0],[0.28,0.99,0]];shape=mxgraph.kubernetes.icon2;prIcon=ns" vertex="1" parent="TinNUj6vpqagRueMMJya-32">
          <mxGeometry x="20" width="50" height="48" as="geometry" />
        </mxCell>
        <mxCell id="TinNUj6vpqagRueMMJya-26" value="hashicorp-vault" style="text;html=1;align=center;verticalAlign=middle;whiteSpace=wrap;rounded=0;" vertex="1" parent="TinNUj6vpqagRueMMJya-32">
          <mxGeometry y="48" width="90" height="30" as="geometry" />
        </mxCell>
        <mxCell id="TinNUj6vpqagRueMMJya-29" value="" style="group" vertex="1" connectable="0" parent="TinNUj6vpqagRueMMJya-34">
          <mxGeometry x="160" y="80" width="60" height="78" as="geometry" />
        </mxCell>
        <mxCell id="TinNUj6vpqagRueMMJya-8" value="" style="aspect=fixed;sketch=0;html=1;dashed=0;whitespace=wrap;fillColor=#2875E2;strokeColor=#ffffff;points=[[0.005,0.63,0],[0.1,0.2,0],[0.9,0.2,0],[0.5,0,0],[0.995,0.63,0],[0.72,0.99,0],[0.5,1,0],[0.28,0.99,0]];shape=mxgraph.kubernetes.icon2;prIcon=sa" vertex="1" parent="TinNUj6vpqagRueMMJya-29">
          <mxGeometry x="5" width="50" height="48" as="geometry" />
        </mxCell>
        <mxCell id="TinNUj6vpqagRueMMJya-23" value="Vault SA" style="text;html=1;align=center;verticalAlign=middle;whiteSpace=wrap;rounded=0;" vertex="1" parent="TinNUj6vpqagRueMMJya-29">
          <mxGeometry y="48" width="60" height="30" as="geometry" />
        </mxCell>
        <mxCell id="TinNUj6vpqagRueMMJya-30" value="" style="group" vertex="1" connectable="0" parent="TinNUj6vpqagRueMMJya-34">
          <mxGeometry x="160" y="162" width="60" height="78" as="geometry" />
        </mxCell>
        <mxCell id="TinNUj6vpqagRueMMJya-27" value="" style="aspect=fixed;sketch=0;html=1;dashed=0;whitespace=wrap;fillColor=#2875E2;strokeColor=#ffffff;points=[[0.005,0.63,0],[0.1,0.2,0],[0.9,0.2,0],[0.5,0,0],[0.995,0.63,0],[0.72,0.99,0],[0.5,1,0],[0.28,0.99,0]];shape=mxgraph.kubernetes.icon2;prIcon=sa" vertex="1" parent="TinNUj6vpqagRueMMJya-30">
          <mxGeometry x="5" width="50" height="48" as="geometry" />
        </mxCell>
        <mxCell id="TinNUj6vpqagRueMMJya-28" value="Vault SA Default" style="text;html=1;align=center;verticalAlign=middle;whiteSpace=wrap;rounded=0;" vertex="1" parent="TinNUj6vpqagRueMMJya-30">
          <mxGeometry y="48" width="60" height="30" as="geometry" />
        </mxCell>
        <mxCell id="TinNUj6vpqagRueMMJya-18" value="" style="group" vertex="1" connectable="0" parent="TinNUj6vpqagRueMMJya-34">
          <mxGeometry x="301.5" y="140" width="85" height="80" as="geometry" />
        </mxCell>
        <mxCell id="TinNUj6vpqagRueMMJya-14" value="" style="aspect=fixed;sketch=0;html=1;dashed=0;whitespace=wrap;fillColor=#2875E2;strokeColor=#ffffff;points=[[0.005,0.63,0],[0.1,0.2,0],[0.9,0.2,0],[0.5,0,0],[0.995,0.63,0],[0.72,0.99,0],[0.5,1,0],[0.28,0.99,0]];shape=mxgraph.kubernetes.icon2;prIcon=svc" vertex="1" parent="TinNUj6vpqagRueMMJya-18">
          <mxGeometry x="17.5" width="50" height="48" as="geometry" />
        </mxCell>
        <mxCell id="TinNUj6vpqagRueMMJya-15" value="Vault-internal" style="text;html=1;align=center;verticalAlign=middle;whiteSpace=wrap;rounded=0;" vertex="1" parent="TinNUj6vpqagRueMMJya-18">
          <mxGeometry y="50" width="85" height="30" as="geometry" />
        </mxCell>
        <mxCell id="TinNUj6vpqagRueMMJya-19" value="" style="group" vertex="1" connectable="0" parent="TinNUj6vpqagRueMMJya-34">
          <mxGeometry x="314" y="250" width="60" height="78" as="geometry" />
        </mxCell>
        <mxCell id="TinNUj6vpqagRueMMJya-16" value="" style="aspect=fixed;sketch=0;html=1;dashed=0;whitespace=wrap;fillColor=#2875E2;strokeColor=#ffffff;points=[[0.005,0.63,0],[0.1,0.2,0],[0.9,0.2,0],[0.5,0,0],[0.995,0.63,0],[0.72,0.99,0],[0.5,1,0],[0.28,0.99,0]];shape=mxgraph.kubernetes.icon2;prIcon=svc" vertex="1" parent="TinNUj6vpqagRueMMJya-19">
          <mxGeometry x="5" width="50" height="48" as="geometry" />
        </mxCell>
        <mxCell id="TinNUj6vpqagRueMMJya-17" value="Vault UI" style="text;html=1;align=center;verticalAlign=middle;whiteSpace=wrap;rounded=0;" vertex="1" parent="TinNUj6vpqagRueMMJya-19">
          <mxGeometry y="48" width="60" height="30" as="geometry" />
        </mxCell>
        <mxCell id="TinNUj6vpqagRueMMJya-37" value="" style="group" vertex="1" connectable="0" parent="TinNUj6vpqagRueMMJya-34">
          <mxGeometry x="314" y="40" width="60" height="75" as="geometry" />
        </mxCell>
        <mxCell id="TinNUj6vpqagRueMMJya-13" value="Vault" style="text;html=1;align=center;verticalAlign=middle;whiteSpace=wrap;rounded=0;" vertex="1" parent="TinNUj6vpqagRueMMJya-37">
          <mxGeometry y="45" width="60" height="30" as="geometry" />
        </mxCell>
        <mxCell id="TinNUj6vpqagRueMMJya-20" value="" style="group" vertex="1" connectable="0" parent="TinNUj6vpqagRueMMJya-37">
          <mxGeometry width="60" height="70" as="geometry" />
        </mxCell>
        <mxCell id="TinNUj6vpqagRueMMJya-3" value="" style="aspect=fixed;sketch=0;html=1;dashed=0;whitespace=wrap;fillColor=#2875E2;strokeColor=#ffffff;points=[[0.005,0.63,0],[0.1,0.2,0],[0.9,0.2,0],[0.5,0,0],[0.995,0.63,0],[0.72,0.99,0],[0.5,1,0],[0.28,0.99,0]];shape=mxgraph.kubernetes.icon2;prIcon=svc" vertex="1" parent="TinNUj6vpqagRueMMJya-20">
          <mxGeometry x="5" width="50" height="48" as="geometry" />
        </mxCell>
        <mxCell id="TinNUj6vpqagRueMMJya-38" value="" style="group" vertex="1" connectable="0" parent="TinNUj6vpqagRueMMJya-34">
          <mxGeometry x="440" y="142" width="60" height="78" as="geometry" />
        </mxCell>
        <mxCell id="TinNUj6vpqagRueMMJya-1" value="" style="aspect=fixed;sketch=0;html=1;dashed=0;whitespace=wrap;fillColor=#2875E2;strokeColor=#ffffff;points=[[0.005,0.63,0],[0.1,0.2,0],[0.9,0.2,0],[0.5,0,0],[0.995,0.63,0],[0.72,0.99,0],[0.5,1,0],[0.28,0.99,0]];shape=mxgraph.kubernetes.icon2;prIcon=pod" vertex="1" parent="TinNUj6vpqagRueMMJya-38">
          <mxGeometry x="5" width="50" height="48" as="geometry" />
        </mxCell>
        <mxCell id="TinNUj6vpqagRueMMJya-24" value="Vault POD" style="text;html=1;align=center;verticalAlign=middle;whiteSpace=wrap;rounded=0;" vertex="1" parent="TinNUj6vpqagRueMMJya-38">
          <mxGeometry y="48" width="60" height="30" as="geometry" />
        </mxCell>
        <mxCell id="TinNUj6vpqagRueMMJya-39" value="" style="group" vertex="1" connectable="0" parent="TinNUj6vpqagRueMMJya-34">
          <mxGeometry x="160" y="260" width="60" height="78" as="geometry" />
        </mxCell>
        <mxCell id="TinNUj6vpqagRueMMJya-7" value="" style="aspect=fixed;sketch=0;html=1;dashed=0;whitespace=wrap;fillColor=#2875E2;strokeColor=#ffffff;points=[[0.005,0.63,0],[0.1,0.2,0],[0.9,0.2,0],[0.5,0,0],[0.995,0.63,0],[0.72,0.99,0],[0.5,1,0],[0.28,0.99,0]];shape=mxgraph.kubernetes.icon2;prIcon=pvc" vertex="1" parent="TinNUj6vpqagRueMMJya-39">
          <mxGeometry x="5" width="50" height="48" as="geometry" />
        </mxCell>
        <mxCell id="TinNUj6vpqagRueMMJya-22" value="vault-PVC" style="text;html=1;align=center;verticalAlign=middle;whiteSpace=wrap;rounded=0;" vertex="1" parent="TinNUj6vpqagRueMMJya-39">
          <mxGeometry y="48" width="60" height="30" as="geometry" />
        </mxCell>
        <mxCell id="TinNUj6vpqagRueMMJya-33" value="" style="group" vertex="1" connectable="0" parent="TinNUj6vpqagRueMMJya-34">
          <mxGeometry x="540" y="37" width="60" height="78" as="geometry" />
        </mxCell>
        <mxCell id="TinNUj6vpqagRueMMJya-6" value="" style="aspect=fixed;sketch=0;html=1;dashed=0;whitespace=wrap;fillColor=#2875E2;strokeColor=#ffffff;points=[[0.005,0.63,0],[0.1,0.2,0],[0.9,0.2,0],[0.5,0,0],[0.995,0.63,0],[0.72,0.99,0],[0.5,1,0],[0.28,0.99,0]];shape=mxgraph.kubernetes.icon2;prIcon=ing" vertex="1" parent="TinNUj6vpqagRueMMJya-33">
          <mxGeometry x="5" width="50" height="48" as="geometry" />
        </mxCell>
        <mxCell id="TinNUj6vpqagRueMMJya-25" value="Vault ING" style="text;html=1;align=center;verticalAlign=middle;whiteSpace=wrap;rounded=0;" vertex="1" parent="TinNUj6vpqagRueMMJya-33">
          <mxGeometry y="48" width="60" height="30" as="geometry" />
        </mxCell>
        <mxCell id="TinNUj6vpqagRueMMJya-40" value="" style="group" vertex="1" connectable="0" parent="TinNUj6vpqagRueMMJya-34">
          <mxGeometry x="440" y="250" width="60" height="78" as="geometry" />
        </mxCell>
        <mxCell id="TinNUj6vpqagRueMMJya-2" value="" style="aspect=fixed;sketch=0;html=1;dashed=0;whitespace=wrap;fillColor=#2875E2;strokeColor=#ffffff;points=[[0.005,0.63,0],[0.1,0.2,0],[0.9,0.2,0],[0.5,0,0],[0.995,0.63,0],[0.72,0.99,0],[0.5,1,0],[0.28,0.99,0]];shape=mxgraph.kubernetes.icon2;prIcon=sts" vertex="1" parent="TinNUj6vpqagRueMMJya-40">
          <mxGeometry x="5" width="50" height="48" as="geometry" />
        </mxCell>
        <mxCell id="TinNUj6vpqagRueMMJya-21" value="Vault-STS" style="text;html=1;align=center;verticalAlign=middle;whiteSpace=wrap;rounded=0;" vertex="1" parent="TinNUj6vpqagRueMMJya-40">
          <mxGeometry y="48" width="60" height="30" as="geometry" />
        </mxCell>
        <mxCell id="TinNUj6vpqagRueMMJya-42" value="&lt;font style=&quot;font-size: 21px;&quot;&gt;Apps&lt;/font&gt;" style="text;html=1;align=center;verticalAlign=middle;whiteSpace=wrap;rounded=0;" vertex="1" parent="1">
          <mxGeometry x="990" y="630" width="60" height="30" as="geometry" />
        </mxCell>
        <mxCell id="TinNUj6vpqagRueMMJya-43" value="" style="aspect=fixed;sketch=0;html=1;dashed=0;whitespace=wrap;fillColor=#2875E2;strokeColor=#ffffff;points=[[0.005,0.63,0],[0.1,0.2,0],[0.9,0.2,0],[0.5,0,0],[0.995,0.63,0],[0.72,0.99,0],[0.5,1,0],[0.28,0.99,0]];shape=mxgraph.kubernetes.icon2;prIcon=ns" vertex="1" parent="1">
          <mxGeometry x="120" y="690" width="50" height="48" as="geometry" />
        </mxCell>
        <mxCell id="TinNUj6vpqagRueMMJya-44" style="edgeStyle=orthogonalEdgeStyle;rounded=0;orthogonalLoop=1;jettySize=auto;html=1;entryX=0.5;entryY=0;entryDx=0;entryDy=0;entryPerimeter=0;" edge="1" parent="1" source="TinNUj6vpqagRueMMJya-6" target="TinNUj6vpqagRueMMJya-43">
          <mxGeometry relative="1" as="geometry">
            <Array as="points">
              <mxPoint x="740" y="86" />
              <mxPoint x="740" y="570" />
              <mxPoint x="145" y="570" />
            </Array>
          </mxGeometry>
        </mxCell>
        <mxCell id="TinNUj6vpqagRueMMJya-45" value="VSO" style="text;html=1;align=center;verticalAlign=middle;whiteSpace=wrap;rounded=0;" vertex="1" parent="1">
          <mxGeometry x="115" y="738" width="60" height="30" as="geometry" />
        </mxCell>
        <mxCell id="TinNUj6vpqagRueMMJya-50" value="" style="group" vertex="1" connectable="0" parent="1">
          <mxGeometry x="585" y="880" width="60" height="78" as="geometry" />
        </mxCell>
        <mxCell id="TinNUj6vpqagRueMMJya-46" value="" style="aspect=fixed;sketch=0;html=1;dashed=0;whitespace=wrap;fillColor=#2875E2;strokeColor=#ffffff;points=[[0.005,0.63,0],[0.1,0.2,0],[0.9,0.2,0],[0.5,0,0],[0.995,0.63,0],[0.72,0.99,0],[0.5,1,0],[0.28,0.99,0]];shape=mxgraph.kubernetes.icon2;prIcon=ns" vertex="1" parent="TinNUj6vpqagRueMMJya-50">
          <mxGeometry x="5" width="50" height="48" as="geometry" />
        </mxCell>
        <mxCell id="TinNUj6vpqagRueMMJya-48" value="NS 1" style="text;html=1;align=center;verticalAlign=middle;whiteSpace=wrap;rounded=0;" vertex="1" parent="TinNUj6vpqagRueMMJya-50">
          <mxGeometry y="48" width="60" height="30" as="geometry" />
        </mxCell>
        <mxCell id="TinNUj6vpqagRueMMJya-51" value="" style="group" vertex="1" connectable="0" parent="1">
          <mxGeometry x="385" y="1010" width="60" height="78" as="geometry" />
        </mxCell>
        <mxCell id="TinNUj6vpqagRueMMJya-47" value="" style="aspect=fixed;sketch=0;html=1;dashed=0;whitespace=wrap;fillColor=#2875E2;strokeColor=#ffffff;points=[[0.005,0.63,0],[0.1,0.2,0],[0.9,0.2,0],[0.5,0,0],[0.995,0.63,0],[0.72,0.99,0],[0.5,1,0],[0.28,0.99,0]];shape=mxgraph.kubernetes.icon2;prIcon=ns" vertex="1" parent="TinNUj6vpqagRueMMJya-51">
          <mxGeometry x="5" width="50" height="48" as="geometry" />
        </mxCell>
        <mxCell id="TinNUj6vpqagRueMMJya-49" value="NS 2" style="text;html=1;align=center;verticalAlign=middle;whiteSpace=wrap;rounded=0;" vertex="1" parent="TinNUj6vpqagRueMMJya-51">
          <mxGeometry y="48" width="60" height="30" as="geometry" />
        </mxCell>
        <mxCell id="TinNUj6vpqagRueMMJya-60" style="edgeStyle=orthogonalEdgeStyle;rounded=0;orthogonalLoop=1;jettySize=auto;html=1;exitX=0.5;exitY=1;exitDx=0;exitDy=0;exitPerimeter=0;" edge="1" parent="1" source="TinNUj6vpqagRueMMJya-52">
          <mxGeometry relative="1" as="geometry">
            <mxPoint x="614.7777777777778" y="880" as="targetPoint" />
          </mxGeometry>
        </mxCell>
        <mxCell id="TinNUj6vpqagRueMMJya-52" value="" style="aspect=fixed;sketch=0;html=1;dashed=0;whitespace=wrap;fillColor=#2875E2;strokeColor=#ffffff;points=[[0.005,0.63,0],[0.1,0.2,0],[0.9,0.2,0],[0.5,0,0],[0.995,0.63,0],[0.72,0.99,0],[0.5,1,0],[0.28,0.99,0]];shape=mxgraph.kubernetes.icon2;prIcon=secret" vertex="1" parent="1">
          <mxGeometry x="590" y="790" width="50" height="48" as="geometry" />
        </mxCell>
        <mxCell id="TinNUj6vpqagRueMMJya-57" style="edgeStyle=orthogonalEdgeStyle;rounded=0;orthogonalLoop=1;jettySize=auto;html=1;" edge="1" parent="1" source="TinNUj6vpqagRueMMJya-53" target="TinNUj6vpqagRueMMJya-47">
          <mxGeometry relative="1" as="geometry" />
        </mxCell>
        <mxCell id="TinNUj6vpqagRueMMJya-53" value="" style="aspect=fixed;sketch=0;html=1;dashed=0;whitespace=wrap;fillColor=#2875E2;strokeColor=#ffffff;points=[[0.005,0.63,0],[0.1,0.2,0],[0.9,0.2,0],[0.5,0,0],[0.995,0.63,0],[0.72,0.99,0],[0.5,1,0],[0.28,0.99,0]];shape=mxgraph.kubernetes.icon2;prIcon=secret" vertex="1" parent="1">
          <mxGeometry x="390" y="920" width="50" height="48" as="geometry" />
        </mxCell>
        <mxCell id="TinNUj6vpqagRueMMJya-58" style="edgeStyle=orthogonalEdgeStyle;rounded=0;orthogonalLoop=1;jettySize=auto;html=1;entryX=0.5;entryY=0;entryDx=0;entryDy=0;entryPerimeter=0;exitX=0.995;exitY=0.63;exitDx=0;exitDy=0;exitPerimeter=0;" edge="1" parent="1" source="TinNUj6vpqagRueMMJya-43" target="TinNUj6vpqagRueMMJya-52">
          <mxGeometry relative="1" as="geometry" />
        </mxCell>
        <mxCell id="TinNUj6vpqagRueMMJya-62" style="edgeStyle=orthogonalEdgeStyle;rounded=0;orthogonalLoop=1;jettySize=auto;html=1;exitX=0.005;exitY=0.63;exitDx=0;exitDy=0;exitPerimeter=0;entryX=0.005;entryY=0.63;entryDx=0;entryDy=0;entryPerimeter=0;" edge="1" parent="1" source="TinNUj6vpqagRueMMJya-43" target="TinNUj6vpqagRueMMJya-53">
          <mxGeometry relative="1" as="geometry" />
        </mxCell>
      </root>
    </mxGraphModel>
  </diagram>
</mxfile>
